HIERARCHY
ROOT reference
{
  OFFSET 0 0 0
  CHANNELS 6 Xposition Yposition Zposition Zrotation Xrotation Yrotation
  JOINT Hips
  {
    OFFSET -0.640737 85.2663 92.3231
    CHANNELS 6 Xposition Yposition Zposition Zrotation Xrotation Yrotation
    JOINT Spine
    {
      OFFSET 0 8.12958 0
      CHANNELS 6 Xposition Yposition Zposition Zrotation Xrotation Yrotation
      JOINT Spine1
      {
        OFFSET 0 26.3907 0
        CHANNELS 6 Xposition Yposition Zposition Zrotation Xrotation Yrotation
        JOINT Neck
        {
          OFFSET 0 26.2823 2.3893
          CHANNELS 6 Xposition Yposition Zposition Zrotation Xrotation Yrotation
          JOINT Head
          {
            OFFSET 0 13.8798 -1.98282
            CHANNELS 6 Xposition Yposition Zposition Zrotation Xrotation Yrotation
            End Site
            {
              OFFSET 0 24.7853 0
            }
          }
        }
        JOINT LeftShoulder
        {
          OFFSET 3.97789 23.5745 -0.27352
          CHANNELS 6 Xposition Yposition Zposition Zrotation Xrotation Yrotation
          JOINT LeftArm
          {
            OFFSET 13.7626 0 0
            CHANNELS 6 Xposition Yposition Zposition Zrotation Xrotation Yrotation
            JOINT LeftForeArm
            {
              OFFSET 26.1014 0 0
              CHANNELS 6 Xposition Yposition Zposition Zrotation Xrotation Yrotation
              JOINT LeftHand
              {
                OFFSET 29.9599 0 0
                CHANNELS 6 Xposition Yposition Zposition Zrotation Xrotation Yrotation
                End Site
                {
                  OFFSET 14.8712 0 0
                }
              }
            }
          }
        }
        JOINT RightShoulder
        {
          OFFSET -3.9517 23.5745 -0.27352
          CHANNELS 6 Xposition Yposition Zposition Zrotation Xrotation Yrotation
          JOINT RightArm
          {
            OFFSET -13.7626 0 0
            CHANNELS 6 Xposition Yposition Zposition Zrotation Xrotation Yrotation
            JOINT RightForeArm
            {
              OFFSET -26.1014 0 0
              CHANNELS 6 Xposition Yposition Zposition Zrotation Xrotation Yrotation
              JOINT RightHand
              {
                OFFSET -29.9599 0 0
                CHANNELS 6 Xposition Yposition Zposition Zrotation Xrotation Yrotation
                End Site
                {
                  OFFSET -14.8712 0 0
                }
              }
            }
          }
        }
      }
    }
    JOINT LeftUpLeg
    {
      OFFSET 9.91412 0 0
      CHANNELS 6 Xposition Yposition Zposition Zrotation Xrotation Yrotation
      JOINT LeftLeg
      {
        OFFSET 0 -41.4279 0
        CHANNELS 6 Xposition Yposition Zposition Zrotation Xrotation Yrotation
        JOINT LeftFoot
        {
          OFFSET 0 -41.0254 0
          CHANNELS 6 Xposition Yposition Zposition Zrotation Xrotation Yrotation
          JOINT LeftToeBase
          {
            OFFSET 0 -6.44418 14.8712
            CHANNELS 6 Xposition Yposition Zposition Zrotation Xrotation Yrotation
            End Site
            {
              OFFSET 0 0 3.96565
            }
          }
        }
      }
    }
    JOINT RightUpLeg
    {
      OFFSET -9.91412 0 0
      CHANNELS 6 Xposition Yposition Zposition Zrotation Xrotation Yrotation
      JOINT RightLeg
      {
        OFFSET 0 -41.4279 0
        CHANNELS 6 Xposition Yposition Zposition Zrotation Xrotation Yrotation
        JOINT RightFoot
        {
          OFFSET 0 -41.0254 0
          CHANNELS 6 Xposition Yposition Zposition Zrotation Xrotation Yrotation
          JOINT RightToeBase
          {
            OFFSET 0 -6.44418 14.8712
            CHANNELS 6 Xposition Yposition Zposition Zrotation Xrotation Yrotation
            End Site
            {
              OFFSET 0 0 3.96565
            }
          }
        }
      }
    }
  }
}
MOTION
Frames:	4
Frame Time:	0.004
0 0 0 0 0 -0 -21.4107 83.1546 -208.175 0.176976 -3.18998 3.91588 0 8.12958 0 -0.433207 1.62287 -1.73568 0 26.3907 0 0.00307936 -5.39845 -1.74105 0 26.2823 2.3893 0.18601 11.9942 -2.08186 3.55271e-015 13.8798 -1.98282 1.1627 -0.813312 -1.98961 3.97789 23.5745 -0.27352 10.2606 2.18714 -1.85721 13.7626 0 0 -13.7256 0.65513 0.587522 26.1014 2.84217e-014 0 1.01323 0.295979 -0.987217 29.9599 0 0 12.1673 0.587866 2.63844 -3.9517 23.5745 -0.27352 -8.62498 0.736082 1.87664 -13.7626 2.84217e-014 0 13.447 8.74494 -2.83957 -26.1014 0 -2.84217e-014 -5.71338 -3.07512 -0.336842 -29.9599 0 0 -6.0958 -3.20606 2.13601 9.91412 0 0 -0.692119 7.8253 -0.427782 0 -41.4279 0 0.66522 -3.3514 6.6836 0 -41.0254 2.84217e-014 2.93736 -3.89546 5.049 0 -6.44418 14.8712 2.98177e-016 3.97569e-016 -6.36111e-015 -9.91412 1.42109e-014 -2.84217e-014 -0.435276 6.18073 3.9321 -7.10543e-015 -41.4279 0 0.238114 -0.677525 3.33701 0 -41.0254 -2.84217e-014 -0.120213 -5.74027 -17.2575 0 -6.44418 14.8712 1.49089e-016 -7.95139e-016 1.59028e-015 
0 0 0 0 0 -0 -21.4107 83.1546 -208.167 0.176976 -3.18998 3.91588 -1.77636e-015 8.12958 0 -0.433207 1.62287 -1.73568 0 26.3907 0 -0.00825394 -5.40976 -1.74109 3.55271e-015 26.2823 2.3893 0.186611 12.0104 -2.08198 0 13.8798 -1.98282 1.1753 -0.809193 -1.98961 3.97789 23.5745 -0.27352 10.2606 2.18714 -1.85721 13.7626 0 -2.84217e-014 -13.7096 0.662937 0.572372 26.1014 0 0 1.01323 0.295979 -0.987217 29.9599 2.84217e-014 -2.84217e-014 12.2403 0.587866 2.63844 -3.9517 23.5745 -0.27352 -8.62518 0.736076 1.89181 -13.7626 -2.84217e-014 -2.84217e-014 13.4734 8.73834 -2.85226 -26.1014 0 0 -5.743 -3.07189 -0.336841 -29.9599 -2.84217e-014 -2.84217e-014 -6.09627 -3.20221 2.13008 9.91412 1.42109e-014 0 -0.692119 7.8253 -0.427782 0 -41.4279 2.84217e-014 0.66443 -3.35149 6.67008 3.55271e-015 -41.0254 2.84217e-014 2.9227 -3.89535 5.06816 -7.10543e-015 -6.44418 14.8712 2.98177e-016 0 3.18055e-015 -9.91412 2.84217e-014 0 -0.435276 6.18073 3.9321 -3.55271e-015 -41.4279 0 0.238309 -0.677514 3.35349 7.10543e-015 -41.0254 -2.84217e-014 -0.123675 -5.73989 -17.2696 0 -6.44418 14.8712 1.98785e-016 -3.97569e-016 7.95139e-016 
0 0 0 0 0 -0 -21.4122 83.1546 -208.164 0.176976 -3.18998 3.91588 -1.77636e-015 8.12958 0 -0.433207 1.62287 -1.73568 0 26.3907 0 -0.011356 -5.41217 -1.74109 0 26.2823 2.3893 0.186776 12.0148 -2.08202 3.55271e-015 13.8798 -1.98282 1.17996 -0.803973 -1.98961 3.97789 23.5745 -0.27352 10.2604 2.18 -1.8572 13.7626 0 -2.84217e-014 -13.7063 0.669703 0.573988 26.1014 2.84217e-014 0 1.01326 0.297741 -0.987217 29.9599 0 -2.84217e-014 12.2547 0.590204 2.64278 -3.9517 23.5745 -0.27352 -8.6226 0.738017 1.89322 -13.7626 0 0 13.482 8.78258 -2.85918 -26.1014 0 0 -5.75882 -3.09103 -0.336847 -29.9599 0 2.84217e-014 -6.11001 -3.22056 2.11367 9.91412 1.42109e-014 0 -0.692201 7.8145 -0.427771 0 -41.4279 0 0.66552 -3.35137 6.68872 7.10543e-015 -41.0254 0 2.93207 -3.89543 5.05431 0 -6.44418 14.8712 -2.98177e-016 -3.97569e-016 -0 -9.91412 1.42109e-014 -2.84217e-014 -0.434734 6.17289 3.93204 0 -41.4279 0 0.238328 -0.680809 3.33887 -3.55271e-015 -41.0254 0 -0.0948009 -5.75219 -17.2508 7.10543e-015 -6.44418 14.8712 -4.96962e-017 -3.97569e-016 -1.59028e-015 
0 0 0 0 0 -0 -21.4137 83.1546 -208.157 0.176976 -3.18998 3.91588 0 8.12958 0 -0.433207 1.62287 -1.73568 0 26.3907 -2.84217e-014 -0.0132251 -5.41228 -1.74268 -3.55271e-015 26.2823 2.3893 0.188331 12.0183 -2.08204 0 13.8798 -1.98282 1.17837 -0.79822 -1.98961 3.97789 23.5745 -0.27352 10.2603 2.17746 -1.8572 13.7626 0 0 -13.6881 0.623968 0.561712 26.1014 -2.84217e-014 -2.84217e-014 1.00306 0.344418 -0.986374 29.9599 0 0 12.3027 0.642036 2.67948 -3.9517 23.5745 -0.27352 -8.61359 0.748239 1.89286 -13.7626 0 0 13.4677 8.74552 -2.83875 -26.1014 0 -2.84217e-014 -5.76628 -3.05628 -0.336836 -29.9599 0 0 -6.06094 -3.18718 2.14876 9.91412 1.42109e-014 0 -0.692033 7.83168 -0.428072 -3.55271e-015 -41.4279 0 0.664917 -3.35144 6.67841 -3.55271e-015 -41.0254 0 2.92964 -3.88868 5.05993 0 -6.44418 14.8712 3.97569e-016 3.97569e-016 3.18055e-015 -9.91412 0 0 -0.435764 6.19151 3.9298 3.55271e-015 -41.4279 0 0.238753 -0.688294 3.33794 0 -41.0254 2.84217e-014 -0.121958 -5.74231 -17.2469 0 -6.44418 14.8712 -1.49089e-016 -3.97569e-016 -0 
